# xmcd
#
# Track frame offsets:
# 150
# 17560
# 35037
# 50000
# 65657
# 87668
# 106737
# 126908
# 149201
#
# Disc length: 2227 seconds
#
#
# Revision: 2
# Processed by: cddbd v1.5.1PL0 Copyright (c) Steve Scherf et al.
# Submitted via: FreeRIP 2.91 
#
DISCID=8908b109
DTITLE=Nada - L' amore è fortissimo e il corpo no
DYEAR=1900
DGENRE=Blues
TTITLE0=Gesù
TTITLE1=Giulia
TTITLE2=Meraviglioso
TTITLE3=L' Amore è fortissimo e il corpo no
TTITLE4=In generale
TTITLE5=Grazie
TTITLE6=La musica antica
TTITLE7=Suonano alla porta
TTITLE8=Questa donna
EXTD=
EXTT0=
EXTT1=
EXTT2=
EXTT3=
EXTT4=
EXTT5=
EXTT6=
EXTT7=
EXTT8=
PLAYORDER=
